{"title":"Birthday Girl 2001 DVDRip Xvid BigPerm LKRG","uid":6635476,"size":1033148174,"categoryP":"video","categoryS":"movies","magnet":"?xt=urn:btih:65f64b0d0c4f60d9f2711053794ea13aca71f1a0&amp;dn=Birthday+Girl+2001+DVDRip+Xvid+BigPerm+LKRG&amp;tr=udp%3A%2F%2Ftracker.openbittorrent.com%3A80&amp;tr=udp%3A%2F%2Fopen.demonii.com%3A1337&amp;tr=udp%3A%2F%2Ftracker.coppersurfer.tk%3A6969&amp;tr=udp%3A%2F%2Fexodus.desync.com%3A6969","seeders":2,"leechers":2,"uploader":".BONE.","files":2,"time":1314541657,"description":"PLOT\n\nA thirtysomething bank clerk from St Albans has his small-town life exploded by the arrival of his Russian mail-order bride.\n &lt;a href=&quot;\nhttp://www.imdb.com/title/tt0188453/&quot; rel=&quot;nofollow&quot; target=&quot;_NEW&quot;&gt;\nhttp://www.imdb.com/title/tt0188453/&lt;/a&gt;\n\nEncoded By .......: BigPerm1828\nRuntime ..........: 1h 30mn\nFile Size ........: 985 MiB\nResolution .......: 704 x 396\nIMDb URL .........: http://www.imdb.com/title/tt0188453/\nGenre ............: Comedy | Crime | Romance\nLanguage .........: English\nVideo\nID : 0\nFormat : MPEG-4 Visual\nFormat profile : Advanced Simple@L5\nFormat settings, BVOP : Yes\nFormat settings, QPel : No\nFormat settings, GMC : No warppoints\nFormat settings, Matrix : Default (H.263)\nCodec ID : XVID\nCodec ID/Hint : XviD\nDuration : 1h 30mn\nBit rate : 1 073 Kbps\nWidth : 704 pixels\nHeight : 396 pixels\nDisplay aspect ratio : 16:9\nFrame rate : 29.970 fps\nColor space : YUV\nChroma subsampling : 4:2:0\nBit depth : 8 bits\nScan type : Progressive\nCompression mode : Lossy\nBits/(Pixel*Frame) : 0.128\nStream size : 692 MiB (70%)\nWriting library : XviD 1.2.1 (UTC 2008-12-04)\n\nAudio\nID : 1\nFormat : AC-3\nFormat/Info : Audio Coding 3\nMode extension : CM (complete main)\nCodec ID : 2000\nDuration : 1h 30mn\nBit rate mode : Constant\nBit rate : 448 Kbps\nChannel(s) : 6 channels\nChannel positions : Front: L C R, Side: L R, LFE\nSampling rate : 48.0 KHz\nBit depth : 16 bits\nCompression mode : Lossy\nVideo delay : 33ms\nStream size : 289 MiB (29%)\nAlignment : Split accross interleaves\nInterleave, duration : 500 ms (14.98 video frames)\nInterleave, preload duration : 500 ms","torrent":{"xt":"urn:btih:65f64b0d0c4f60d9f2711053794ea13aca71f1a0","amp;dn":"Birthday+Girl+2001+DVDRip+Xvid+BigPerm+LKRG","amp;tr":["udp%3A%2F%2Ftracker.openbittorrent.com%3A80","udp%3A%2F%2Fopen.demonii.com%3A1337","udp%3A%2F%2Ftracker.coppersurfer.tk%3A6969","udp%3A%2F%2Fexodus.desync.com%3A6969"],"infoHash":"65f64b0d0c4f60d9f2711053794ea13aca71f1a0","infoHashBuffer":{"type":"Buffer","data":[101,246,75,13,12,79,96,217,242,113,16,83,121,78,161,58,202,113,241,160]},"announce":[],"urlList":[]}}